<?xml version="1.0" encoding="UTF-8"?>
<svg id="Layer_1" xmlns="http://www.w3.org/2000/svg" version="1.1" viewBox="0 0 2500 429.1">
  <!-- Generator: Adobe Illustrator 30.3.0, SVG Export Plug-In . SVG Version: 2.1.3 Build 182)  -->
  <defs>
    <style>
      .st0 {
        fill: #fff;
        fill-rule: evenodd;
      }

      .st1 {
        fill: #1c8f5a;
      }

      .st2 {
        fill: #23a566;
      }

      .st3 {
        fill: #787879;
      }

      .st4 {
        fill: #8ed1b1;
      }
    </style>
  </defs>
  <path class="st2" d="M310.5,404.7c0,13.4-10.9,24.3-24.3,24.3H26.7c-13.4,0-24.3-10.9-24.3-24.3V25C2.4,11.6,13.2.7,26.7.7h166.6l117.3,119.6v284.5Z"/>
  <path class="st1" d="M206.1,117.1l104.4,99.7v-97.3h-92.4c-4,0-8-1-11.5-2.9l-.4.5Z"/>
  <path class="st4" d="M310.5,120.1h-92.7c-13.4,0-24.3-10.9-24.3-24.3V0l117,120.1Z"/>
  <path class="st0" d="M236.3,350.1H76v-139h160.3v139ZM166.1,231.1v24.3h50.5v-24.3h-50.5ZM166.1,270.8v23.3h50.5v-23.4h-50.5ZM166.1,308.8v21.5h50.5v-21.6h-50.5ZM146.3,330.3v-21.5h-50.5v21.5h50.5ZM146.3,293.8v-23.1h-50.5v23.2h50.5ZM146.3,255.7v-24.6h-50.5v24.3l50.5.3Z"/>
  <path class="st3" d="M859.1,215c0-30.5-23-51.3-49.7-51.3s-49.7,20.8-49.7,51.3,23,51.3,49.7,51.3,49.7-21.2,49.7-51.3ZM897.8,215c0,48.8-39.7,84.7-88.4,84.7s-88.3-36-88.3-84.7,39.7-84.7,88.4-84.7,88.3,35.6,88.3,84.7ZM1049.6,215c0-30.5-23-51.3-49.7-51.3s-49.7,20.8-49.7,51.3,23,51.3,49.7,51.3,49.7-21.2,49.7-51.3ZM1088.3,215c0,48.8-39.7,84.7-88.3,84.7s-88.4-36-88.4-84.7,39.7-84.7,88.4-84.7,88.4,35.6,88.4,84.7h0ZM1237,215.3c0-29.8-20.7-51.7-47-51.7s-49,21.8-49,51.7,22.3,51.1,49,51.1,47-21.5,47-51h0ZM1271,135.3v152.2c0,62.6-38.4,88.2-83.7,88.2-33.7.6-64.4-19.1-78-50l33.7-13.5c6,13.8,20.7,30.1,44.4,30.1s47-17.2,47-49.7v-12.2h-1.4c-8.6,10.3-25.3,19.3-46.4,19.3-44,0-84.4-36.9-84.4-84.4s40.3-85.1,84.4-85.1,37.7,9,46.4,18.9h1.4v-13.8h36.7ZM1331.5,46.1h-37.7v248.4h37.7V46.1ZM1386.1,212.3l78.7-31.4c-4.3-10.6-17.4-18-32.7-18s-47,16.7-46,49.4ZM1478.5,242.8l30,19.3c-16.8,23.9-44.2,37.9-73.4,37.6-50,0-87.4-37.2-87.4-84.7s37.7-84.7,83.1-84.7,68,35,75.4,53.9l4,9.6-117.7,46.9c9,17,23,25.7,42.7,25.7s33.3-9.3,43.4-23.4h0ZM578.3,192.9v-36h125.9c1.2,6.3,1.9,13.7,1.9,21.7,0,27-7.7,60.3-32.4,84.1-24,24.1-54.7,36.9-95.4,36.9-75.4,0-138.7-59.1-138.7-131.6s63.4-131.6,138.7-131.6,71.4,15.7,93.7,36.3l-26.4,25.4c-16-14.5-37.7-25.7-67.4-25.7-55,0-98.1,42.7-98.1,95.6s43,95.6,98.1,95.6,56-13.8,69-26.3c10.6-10.2,17.5-24.7,20.3-44.5h-89.3ZM1736.5,242.3c0,19.6-7.2,35.4-21.6,47.3-14.6,11.7-32.4,17.6-53.2,17.6s-35-5.4-49.2-16.3c-14.2-10.9-24-25.7-29.5-44.5l27.6-11.3c1.9,6.7,4.5,12.7,7.8,18.2,3.3,5.4,7.2,10.1,11.6,14.1,4.6,3.8,9.6,6.8,15,9.1,5.4,2.1,11.2,3.1,17.2,3.1,13.2,0,23.9-3.3,32.3-10,8.4-6.9,12.5-16,12.5-27.3s-3.4-17.4-10.3-24.1c-6.5-6.5-18.6-12.7-36.3-18.8-18-6.5-29.1-10.9-33.5-13.2-23.8-12.1-35.7-30-35.7-53.6s6.6-30.6,19.7-42.3c13.4-11.7,29.8-17.5,49.2-17.5s32,4.4,44.5,13.2c12.5,8.6,20.9,19.3,25.1,32.3l-26.9,11.3c-2.5-8.4-7.8-15.7-15.1-20.7-7.3-5.6-16.3-8.5-26.9-8.5s-20.8,3.1-28.5,9.4c-7.8,5.9-11.6,13.5-11.6,22.9s3,14.4,9.1,20.1c6.7,5.6,21.2,12.3,43.5,20.1,22.7,7.7,38.9,17.2,48.5,28.5,9.8,11.1,14.7,24.8,14.7,41ZM1766.2,77.9h28.8v70.8l-1.3,21.3h1.3c4.4-7.5,11.1-13.8,20.1-18.8,8.7-4.9,18.5-7.5,28.5-7.5,18.8,0,33.2,5.4,43.2,16.3,10.2,10.7,15.3,25.9,15.3,45.7v96.5h-28.8v-90.8c0-27.6-12.2-41.3-36.6-41.3s-21.6,4.9-29.8,14.7c-7.9,9.5-12.1,21.5-11.9,33.8v83.6h-28.8V77.9ZM2004.9,307.2c-22.6,0-41.1-7.8-55.8-23.2-14.6-15.4-21.9-35-21.9-58.6s7.1-42.8,21.3-58.2c14.2-15.7,32.4-23.5,54.5-23.5s40.8,7.4,54.2,22.2c13.6,14.6,20.4,35.2,20.4,61.7l-.3,3.1h-120.6c.4,15,5.4,27.1,15,36.3s21.1,13.8,34.4,13.8,32.8-9.2,43.2-27.6l25.7,12.5c-6.6,12.6-16.6,23.1-28.8,30.4-12.1,7.3-25.9,11-41.3,11h0ZM1958.8,207h88c-.6-10.2-5.4-19.7-13.2-26.3-7.7-7.1-18.2-10.7-31.3-10.7s-20.2,3.3-28.2,10c-7.7,6.7-12.8,15.7-15.3,26.9h0ZM2174.3,307.2c-22.6,0-41.2-7.8-55.8-23.2s-21.9-35-21.9-58.6,7.1-42.8,21.3-58.2c14.2-15.7,32.4-23.5,54.5-23.5s40.8,7.4,54.2,22.2c13.6,14.6,20.4,35.2,20.4,61.7l-.3,3.1h-120.6c.4,15,5.4,27.1,15,36.3s21.1,13.8,34.4,13.8,32.8-9.2,43.2-27.6l25.7,12.5c-6.6,12.6-16.6,23.1-28.8,30.4-12.1,7.3-25.9,11-41.3,11h0ZM2128.3,207h88c-.6-10.2-5.4-19.7-13.2-26.3-7.7-7.1-18.2-10.7-31.3-10.7s-20.2,3.3-28.2,10c-7.7,6.7-12.8,15.7-15.3,26.9h0ZM2329.5,304.7c-12.5,0-23-3.9-31.3-11.6-8.2-7.7-12.3-18.5-12.5-32.3v-85.8h-26.9v-26.3h26.9v-47h28.8v47h37.6v26.3h-37.6v76.4c0,10.2,2,17.2,6,21,4,3.5,8.4,5.3,13.5,5.3s4.5-.2,6.6-.6c2.3-.6,4.4-1.4,6.3-2.2l9.1,25.7c-7.5,2.7-16.3,4.1-26.3,4.1h0ZM2500,259.6c0,13.4-5.9,24.6-17.5,33.8-11.7,9.2-26.4,13.8-44.2,13.8s-29-4-40.7-11.9c-11.4-7.8-20.2-19-25.1-32l25.7-10.9c3.8,9.2,9.2,16.4,16.3,21.6,7.3,5,15.2,7.5,23.8,7.5s16.8-2,22.9-5.9c6.3-4,9.4-8.7,9.4-14.1,0-9.8-7.5-17-22.6-21.6l-26.3-6.6c-29.9-7.5-44.8-21.9-44.8-43.2s5.6-25.2,16.9-33.5c11.5-8.6,26.1-12.8,43.8-12.8s25.8,3.2,36.6,9.7c11.1,6.5,18.8,15.2,23.2,26l-25.7,10.7c-3-6.5-8-11.8-14.4-15-6.7-3.8-14.2-5.8-21.9-5.6-7.5,0-14.3,1.9-20.4,5.6-5.9,3.8-8.8,8.4-8.8,13.8,0,8.8,8.3,15,24.8,18.8l23.2,5.9c30.5,7.5,45.7,22.9,45.7,46h0Z"/>
</svg>