<?xml version="1.0" encoding="UTF-8"?>
<svg id="Layer_1" xmlns="http://www.w3.org/2000/svg" version="1.1" viewBox="0 0 2500 676">
  <!-- Generator: Adobe Illustrator 30.3.0, SVG Export Plug-In . SVG Version: 2.1.3 Build 182)  -->
  <defs>
    <style>
      .st0 {
        fill: #ff4f00;
      }

      .st1 {
        fill: #e6e6e6;
      }
    </style>
  </defs>
  <path class="st1" d="M589.1,463.4l-.4-1.1,221.6-202.9v-97.7h-355.5v97.7h212.3l.3.9-219.4,203v97.7h365.8v-97.7h-224.8.1ZM1032.1,152.4c-41,0-74.4,6.2-100.2,18.6-24.1,10.8-44.3,28.5-58.2,51-13.2,22.6-21.6,47.7-24.4,73.7l107.9,15.2c3.9-23,11.7-39.3,23.4-48.9,13.3-10,29.7-15.1,46.4-14.3,21.9,0,37.8,5.8,47.6,17.6,9.8,11.7,14.8,27.9,14.8,49.3v10.7h-103.7c-52.8,0-90.7,11.7-113.8,35.1s-34.6,54.3-34.5,92.7c0,39.3,11.5,68.6,34.5,87.8s52,28.7,86.8,28.6c43.3,0,76.6-14.9,99.8-44.7,13.8-18.3,23.6-39.2,28.9-61.5h3.9l14.9,97.7h97.7v-247.5c0-51.1-13.5-90.8-40.4-118.9-27-28.1-70.7-42.1-131.3-42.1h0ZM1066.3,457.5c-15.5,12.9-35.8,19.4-61.1,19.4s-35.3-3.6-43.4-10.9c-8-7-12.5-17.2-12.2-27.8-.5-10,3.2-19.8,10.1-27,7.5-7,17.5-10.7,27.8-10.1h102v6.7c.4,19.3-8.1,37.7-23.2,49.8h0ZM1794.9,161.7h-115.5v399.5h115.5V161.7ZM2476.7,161.7c-32.6,0-58.3,11.5-77.1,34.5-13.5,16.5-23.8,41-30.8,73.3h-3.4l-15.1-107.9h-98.6v399.4h115.5v-204.8c0-25.8,6-45.6,18.1-59.4s34.4-20.7,67-20.7h43.8v-114.5h-19.4ZM2137,174.8c-27-16-61-24-102-24-64.6,0-115.2,18.4-151.7,55.2s-54.8,87.5-54.8,152.2c-.9,39.1,7.6,77.8,24.9,112.9,15.8,31.3,40.4,57.2,70.8,74.6,30.6,17.7,67,26.5,109.2,26.6,36.5,0,67-5.6,91.4-16.9,23-10.1,43-25.9,58.2-45.9,14.4-19.7,25.1-41.8,31.6-65.3l-99.5-27.9c-4.2,15.3-12.3,29.2-23.4,40.5-11.2,11.2-30.1,16.9-56.5,16.9s-54.8-9-70.2-27c-11.2-13-18.2-31.5-21.3-55.6h272.4c1.1-11.2,1.7-20.7,1.7-28.3v-24.9c.7-33.4-6.2-66.5-20.2-96.9-13.1-27.7-34.2-50.7-60.6-66.2h0ZM2031.7,246c46.8,0,73.4,23,79.6,69.1h-165.6c2.6-15.4,9-29.9,18.6-42.2,15.2-18,37.7-27,67.4-26.9h0ZM1738.4.7c-17.6-.6-34.6,5.9-47.2,18.1-12.5,12.3-19.2,29.3-18.6,46.8-.6,17.6,6.1,34.7,18.6,47.2s29.6,19.2,47.2,18.5c17.5.7,34.5-6.1,46.8-18.6,12.2-12.6,18.7-29.6,18.1-47.2.8-17.4-5.8-34.4-18.1-46.8-12.3-12.1-29.3-18.7-46.7-17.9h0ZM1499.9,150.8c-39.3,0-70.9,12.3-94.8,37-17.7,18.3-30.6,45.6-38.9,81.9h-3.7l-15.1-107.9h-98.6v514.1h115.5v-211.7h4.2c3.5,14.1,8.5,27.8,14.8,41,9.8,21.4,25.8,39.3,45.9,51.4,20.9,11.4,44.4,17.1,68.2,16.4,48.3,0,85.1-18.8,110.4-56.5s37.9-90.2,37.9-157.6-12.2-116.1-36.7-152.9c-24.5-36.8-60.8-55.2-109.1-55.2h0ZM1511.6,440.3c-13.5,19.5-34.5,29.3-63.2,29.3-24,1.1-47-9.4-61.9-28.3-15-18.8-22.4-44.5-22.4-77.1v-7.6c0-33.1,7.4-58.5,22.4-76.1,14.9-17.6,35.5-26.3,61.9-26.1,29.2,0,50.4,9.3,63.6,27.8s19.8,44.4,19.8,77.5-6.6,61.1-20.1,80.5h-.1Z"/>
  <path class="st0" d="M403.5,463.4H4v97.9h399.5v-97.9Z"/>
</svg>